<svg height="276" width="319" viewBox="221 515 319 276" style="background-color:transparent;" preserveAspectRatio="xMinYMin meet" xmlns:xlink="http://www.w3.org/1999/xlink" xmlns="http://www.w3.org/2000/svg"><g transform="translate(0,0)"><g transform="matrix(1,0,0,1,236,620)"><path style="fill:none;stroke:#333333;stroke-width:3.0;" d="m2.2620587372241197,0.07507387939271586l143.58493149671563,1.667685857497127l-3.2244809121976195,60.15767110170476l-142.44694228056184,-0.23805662188797044z"/></g><text style="font-weight:bold; font-size: 24px; text-anchor: middle; font-family: arial,helvetica; fill: #333333;" y="659" x="309">a</text></g><g transform="translate(0,0)"><g transform="matrix(1,0,0,1,379,621)"><path style="fill:none;stroke:#333333;stroke-width:3.0;" d="m2.2620587372241197,0.07507387939271586l143.58493149671563,1.667685857497127l-3.2244809121976195,60.15767110170476l-142.44694228056184,-0.23805662188797044z"/></g><text style="font-weight:bold; font-size: 24px; text-anchor: middle; font-family: arial,helvetica; fill: #333333;" y="660" x="452">b</text></g><g transform="translate(0,0)"><rect style="fill: #000000;fill-opacity: 0;stroke-opacity:0;stroke-width: 1;stroke:%stroke%;" rx="4" height="48" width="20" y="527" x="321"/><text style="font-weight:Normal; font-size: 12px; text-anchor: start; font-family: arial,helvetica; fill: #333333;" y="548" x="321"><tspan x="321" font-weight="bold" font-size="24" dy="14">w</tspan></text></g><g transform="translate(0,0)"><rect style="fill: #000000;fill-opacity: 0;stroke-opacity:0;stroke-width: 1;stroke:%stroke%;" rx="4" height="48" width="20" y="728" x="341"/><text style="font-weight:Normal; font-size: 12px; text-anchor: start; font-family: arial,helvetica; fill: #333333;" y="749" x="341"><tspan x="341" font-weight="bold" font-size="24" dy="14">r</tspan></text></g><g transform="translate(0,0)"><path style="fill:none;stroke:#333333;stroke-width:2;" d="M331,577 C331,577 350.38700796066166,588.7172401967032 359,596 367.1013244420461,602.8501166296832 381,619 381,619"/><text style="font-weight:Normal; font-size: 12px; text-anchor: middle; font-family: arial,helvetica; fill: #333333;" y="597" x="379"/><text style="font-weight:Normal; font-size: 12px; text-anchor: start; font-family: arial,helvetica; fill: #333333;" y="584" x="359"/><text style="font-weight:Normal; font-size: 12px; text-anchor: middle; font-family: arial,helvetica; fill: #333333;" y="571" x="350"/></g><g transform="translate(0,0)"><rect style="fill: #000000;fill-opacity: 0;stroke-opacity:0;stroke-width: 1;stroke:%stroke%;" rx="4" height="48" width="20" y="525" x="419"/><text style="font-weight:Normal; font-size: 12px; text-anchor: start; font-family: arial,helvetica; fill: #333333;" y="546" x="419"><tspan x="419" font-weight="bold" font-size="24" dy="17">w1</tspan></text></g><g transform="translate(0,0)"><path style="fill:none;stroke:#333333;stroke-width:2;" d="M429,575 C429,575 407.9978113290988,588.4667023335805 399,597 392.12497126432913,603.5201041143127 381,619 381,619"/><text style="font-weight:Normal; font-size: 12px; text-anchor: middle; font-family: arial,helvetica; fill: #333333;" y="615" x="402"/><text style="font-weight:Normal; font-size: 12px; text-anchor: start; font-family: arial,helvetica; fill: #333333;" y="585" x="399"/><text style="font-weight:Normal; font-size: 12px; text-anchor: middle; font-family: arial,helvetica; fill: #333333;" y="595" x="426"/></g><g transform="translate(0,0)"><rect style="fill: #000000;fill-opacity: 0;stroke-opacity:0;stroke-width: 1;stroke:%stroke%;" rx="4" height="48" width="20" y="728" x="484"/><text style="font-weight:Normal; font-size: 12px; text-anchor: start; font-family: arial,helvetica; fill: #333333;" y="749" x="484"><tspan x="484" font-weight="bold" font-size="24" dy="17">r2</tspan></text></g><g transform="translate(0,0)"><path style="fill:none;stroke:#333333;stroke-width:2;" d="M351,726 C351,705.5 452,705.5  452,685"/><text style="font-weight:Normal; font-size: 12px; text-anchor: middle; font-family: arial,helvetica; fill: #333333;" y="678" x="432"/><text style="font-weight:Normal; font-size: 12px; text-anchor: start; font-family: arial,helvetica; fill: #333333;" y="705" x="401"/><text style="font-weight:Normal; font-size: 12px; text-anchor: middle; font-family: arial,helvetica; fill: #333333;" y="707" x="357"/></g><g transform="translate(0,0)"><path style="fill:none;stroke:#333333;stroke-width:2;" d="M494,726 C494,705.5 452,705.5  452,685"/><text style="font-weight:Normal; font-size: 12px; text-anchor: middle; font-family: arial,helvetica; fill: #333333;" y="706" x="453"/><text style="font-weight:Normal; font-size: 12px; text-anchor: start; font-family: arial,helvetica; fill: #333333;" y="705" x="473"/><text style="font-weight:Normal; font-size: 12px; text-anchor: middle; font-family: arial,helvetica; fill: #333333;" y="727" x="473"/></g><g transform="translate(0,0)"><rect style="fill: #000000;fill-opacity: 0;stroke-opacity:0;stroke-width: 1;stroke:%stroke%;" rx="4" height="48" width="20" y="726" x="256"/><text style="font-weight:Normal; font-size: 12px; text-anchor: start; font-family: arial,helvetica; fill: #333333;" y="747" x="256"><tspan x="256" font-weight="bold" font-size="24" dy="14">r</tspan></text></g><g transform="translate(0,0)"><rect style="fill: #000000;fill-opacity: 0;stroke-opacity:0;stroke-width: 1;stroke:%stroke%;" rx="4" height="48" width="20" y="726" x="399"/><text style="font-weight:Normal; font-size: 12px; text-anchor: start; font-family: arial,helvetica; fill: #333333;" y="747" x="399"><tspan x="399" font-weight="bold" font-size="24" dy="17">r1</tspan></text></g><g transform="translate(0,0)"><path style="fill:none;stroke:#333333;stroke-width:2;" d="M266,724 C266,703.5 367,703.5  367,683"/><text style="font-weight:Normal; font-size: 12px; text-anchor: middle; font-family: arial,helvetica; fill: #333333;" y="676" x="347"/><text style="font-weight:Normal; font-size: 12px; text-anchor: start; font-family: arial,helvetica; fill: #333333;" y="703" x="316"/><text style="font-weight:Normal; font-size: 12px; text-anchor: middle; font-family: arial,helvetica; fill: #333333;" y="705" x="272"/></g><g transform="translate(0,0)"><path style="fill:none;stroke:#333333;stroke-width:2;" d="M409,724 C409,703.5 367,703.5  367,683"/><text style="font-weight:Normal; font-size: 12px; text-anchor: middle; font-family: arial,helvetica; fill: #333333;" y="704" x="368"/><text style="font-weight:Normal; font-size: 12px; text-anchor: start; font-family: arial,helvetica; fill: #333333;" y="703" x="388"/><text style="font-weight:Normal; font-size: 12px; text-anchor: middle; font-family: arial,helvetica; fill: #333333;" y="725" x="388"/></g></svg>