<svg height="763" width="476" viewBox="214 28 476 763" style="background-color:transparent;" preserveAspectRatio="xMinYMin meet" xmlns:xlink="http://www.w3.org/1999/xlink" xmlns="http://www.w3.org/2000/svg"><g transform="translate(0,0)"><g transform="matrix(1,0,0,1,238,147)"><path style="fill:none;stroke:#333333;stroke-width:3.0;" d="m2.2620587372241197,0.07507387939271586l143.58493149671563,1.667685857497127l-3.2244809121976195,60.15767110170476l-142.44694228056184,-0.23805662188797044z"/></g><text style="font-weight:bold; font-size: 24px; text-anchor: middle; font-family: arial,helvetica; fill: #333333;" y="186" x="311">a</text></g><g transform="translate(0,0)"><g transform="matrix(1,0,0,1,315,79)"><path style="fill:none;stroke:#333333;stroke-width:3.0;" d="m10.913375369458128,0.10301948460087994l-10.81639014778325,23.679316153362663l7.2252630541871925,-2.183176367064739l-1.0684508374384236,42.17889629164047l10.864701477832512,1.1559034569453173l-2.1369016748768472,-44.06449277184161l7.937569655172414,0.8989652796983029z"/></g></g><g transform="translate(0,0)"><rect style="fill: #000000;fill-opacity: 0;stroke-opacity:0;stroke-width: 1;stroke:%stroke%;" rx="4" height="48" width="20" y="41" x="322"/><text style="font-weight:Normal; font-size: 12px; text-anchor: start; font-family: arial,helvetica; fill: #333333;" y="62" x="322"><tspan x="322" font-weight="bold" font-size="24" dy="14">r</tspan></text></g><g transform="translate(0,0)"><g transform="matrix(1,0,0,1,381,148)"><path style="fill:none;stroke:#333333;stroke-width:3.0;" d="m2.2620587372241197,0.07507387939271586l143.58493149671563,1.667685857497127l-3.2244809121976195,60.15767110170476l-142.44694228056184,-0.23805662188797044z"/></g><text style="font-weight:bold; font-size: 24px; text-anchor: middle; font-family: arial,helvetica; fill: #333333;" y="187" x="454">b</text></g><g transform="translate(0,0)"><g transform="matrix(1,0,0,1,373,81)"><path style="fill:none;stroke:#333333;stroke-width:3.0;" d="m9.93350889081239,62.954289670304775l-9.876419294895287,-23.32904755073558l7.173358138386451,2.3529744880708297l-1.984250765235805,-41.91094770357379l11.131083572896232,0.8667817644055954l-2.0705210102505274,41.995159899818624l6.65572788582382,-1.3620692411791557z"/></g></g><g transform="translate(0,0)"><rect style="fill: #000000;fill-opacity: 0;stroke-opacity:0;stroke-width: 1;stroke:%stroke%;" rx="4" height="48" width="20" y="42" x="373"/><text style="font-weight:Normal; font-size: 12px; text-anchor: start; font-family: arial,helvetica; fill: #333333;" y="63" x="373"><tspan x="373" font-weight="bold" font-size="24" dy="14">w</tspan></text></g><g transform="translate(0,0)"><g transform="matrix(1,0,0,1,465,81)"><path style="fill:none;stroke:#333333;stroke-width:3.0;" d="m10.913375369458128,0.10301948460087994l-10.81639014778325,23.679316153362663l7.2252630541871925,-2.183176367064739l-1.0684508374384236,42.17889629164047l10.864701477832512,1.1559034569453173l-2.1369016748768472,-44.06449277184161l7.937569655172414,0.8989652796983029z"/></g></g><g transform="translate(0,0)"><rect style="fill: #000000;fill-opacity: 0;stroke-opacity:0;stroke-width: 1;stroke:%stroke%;" rx="4" height="48" width="20" y="43" x="472"/><text style="font-weight:Normal; font-size: 12px; text-anchor: start; font-family: arial,helvetica; fill: #333333;" y="64" x="472"><tspan x="472" font-weight="bold" font-size="24" dy="14">r</tspan></text></g><g transform="translate(0,0)"><g transform="matrix(1,0,0,1,524,148)"><path style="fill:none;stroke:#333333;stroke-width:3.0;" d="m0.6352356727821159,0.07507387939271586l40.321795831269455,1.667685857497127l-0.9055049136993315,60.15767110170476l-40.00222351714408,-0.23805662188797044z"/></g><text style="font-weight:bold; font-size: 24px; text-anchor: middle; font-family: arial,helvetica; fill: #333333;" y="187" x="544">c</text></g><g transform="translate(0,0)"><g transform="matrix(1,0,0,1,229,77)"><path style="fill:none;stroke:#333333;stroke-width:3.0;" d="m9.93350889081239,62.954289670304775l-9.876419294895287,-23.32904755073558l7.173358138386451,2.3529744880708297l-1.984250765235805,-41.91094770357379l11.131083572896232,0.8667817644055954l-2.0705210102505274,41.995159899818624l6.65572788582382,-1.3620692411791557z"/></g></g><g transform="translate(0,0)"><g transform="matrix(1,0,0,1,564,148)"><path style="fill:none;stroke:#333333;stroke-width:3.0;" d="m1.7197843824101184,0.07507387939271586l109.16388627490024,1.667685857497127l-2.4514889126981902,60.15767110170476l-108.29870269275592,-0.23805662188797044z"/></g><text style="font-weight:bold; font-size: 24px; text-anchor: middle; font-family: arial,helvetica; fill: #333333;" y="187" x="619">d</text></g><g transform="translate(0,0)"><g transform="matrix(1,0,0,1,515,81)"><path style="fill:none;stroke:#333333;stroke-width:3.0;" d="m9.93350889081239,62.954289670304775l-9.876419294895287,-23.32904755073558l7.173358138386451,2.3529744880708297l-1.984250765235805,-41.91094770357379l11.131083572896232,0.8667817644055954l-2.0705210102505274,41.995159899818624l6.65572788582382,-1.3620692411791557z"/></g></g><g transform="translate(0,0)"><rect style="fill: #000000;fill-opacity: 0;stroke-opacity:0;stroke-width: 1;stroke:%stroke%;" rx="4" height="48" width="20" y="42" x="515"/><text style="font-weight:Normal; font-size: 12px; text-anchor: start; font-family: arial,helvetica; fill: #333333;" y="63" x="515"><tspan x="515" font-weight="bold" font-size="24" dy="14">w</tspan></text></g><g transform="translate(0,0)"><g transform="matrix(1,0,0,1,555,80)"><path style="fill:none;stroke:#333333;stroke-width:3.0;" d="m9.93350889081239,62.954289670304775l-9.876419294895287,-23.32904755073558l7.173358138386451,2.3529744880708297l-1.984250765235805,-41.91094770357379l11.131083572896232,0.8667817644055954l-2.0705210102505274,41.995159899818624l6.65572788582382,-1.3620692411791557z"/></g></g><g transform="translate(0,0)"><rect style="fill: #000000;fill-opacity: 0;stroke-opacity:0;stroke-width: 1;stroke:%stroke%;" rx="4" height="48" width="20" y="41" x="555"/><text style="font-weight:Normal; font-size: 12px; text-anchor: start; font-family: arial,helvetica; fill: #333333;" y="62" x="555"><tspan x="555" font-weight="bold" font-size="24" dy="14">w</tspan></text></g><g transform="translate(0,0)"><g transform="matrix(1,0,0,1,632,80)"><path style="fill:none;stroke:#333333;stroke-width:3.0;" d="m10.913375369458128,0.10301948460087994l-10.81639014778325,23.679316153362663l7.2252630541871925,-2.183176367064739l-1.0684508374384236,42.17889629164047l10.864701477832512,1.1559034569453173l-2.1369016748768472,-44.06449277184161l7.937569655172414,0.8989652796983029z"/></g></g><g transform="translate(0,0)"><rect style="fill: #000000;fill-opacity: 0;stroke-opacity:0;stroke-width: 1;stroke:%stroke%;" rx="4" height="48" width="20" y="42" x="639"/><text style="font-weight:Normal; font-size: 12px; text-anchor: start; font-family: arial,helvetica; fill: #333333;" y="63" x="639"><tspan x="639" font-weight="bold" font-size="24" dy="14">r</tspan></text></g><g transform="translate(0,0)"><g transform="matrix(1,0,0,1,275,78)"><path style="fill:none;stroke:#333333;stroke-width:3.0;" d="m10.913375369458128,0.10301948460087994l-10.81639014778325,23.679316153362663l7.2252630541871925,-2.183176367064739l-1.0684508374384236,42.17889629164047l10.864701477832512,1.1559034569453173l-2.1369016748768472,-44.06449277184161l7.937569655172414,0.8989652796983029z"/></g></g><g transform="translate(0,0)"><g transform="matrix(1,0,0,1,238,359)"><path style="fill:none;stroke:#333333;stroke-width:3.0;" d="m2.2620587372241197,0.07507387939271586l143.58493149671563,1.667685857497127l-3.2244809121976195,60.15767110170476l-142.44694228056184,-0.23805662188797044z"/></g><text style="font-weight:bold; font-size: 24px; text-anchor: middle; font-family: arial,helvetica; fill: #333333;" y="398" x="311">a</text></g><g transform="translate(0,0)"><g transform="matrix(1,0,0,1,381,360)"><path style="fill:none;stroke:#333333;stroke-width:3.0;" d="m2.2620587372241197,0.07507387939271586l143.58493149671563,1.667685857497127l-3.2244809121976195,60.15767110170476l-142.44694228056184,-0.23805662188797044z"/></g><text style="font-weight:bold; font-size: 24px; text-anchor: middle; font-family: arial,helvetica; fill: #333333;" y="399" x="454">b</text></g><g transform="translate(0,0)"><g transform="matrix(1,0,0,1,231,291)"><path style="fill:none;stroke:#333333;stroke-width:3.0;" d="m9.93350889081239,62.954289670304775l-9.876419294895287,-23.32904755073558l7.173358138386451,2.3529744880708297l-1.984250765235805,-41.91094770357379l11.131083572896232,0.8667817644055954l-2.0705210102505274,41.995159899818624l6.65572788582382,-1.3620692411791557z"/></g></g><g transform="translate(0,0)"><rect style="fill: #000000;fill-opacity: 0;stroke-opacity:0;stroke-width: 1;stroke:%stroke%;" rx="4" height="48" width="20" y="252" x="231"/><text style="font-weight:Normal; font-size: 12px; text-anchor: start; font-family: arial,helvetica; fill: #333333;" y="273" x="231"><tspan x="231" font-weight="bold" font-size="24" dy="14">w</tspan></text></g><g transform="translate(0,0)"><g transform="matrix(1,0,0,1,334,289)"><path style="fill:none;stroke:#333333;stroke-width:3.0;" d="m10.913375369458128,0.10301948460087994l-10.81639014778325,23.679316153362663l7.2252630541871925,-2.183176367064739l-1.0684508374384236,42.17889629164047l10.864701477832512,1.1559034569453173l-2.1369016748768472,-44.06449277184161l7.937569655172414,0.8989652796983029z"/></g></g><g transform="translate(0,0)"><rect style="fill: #000000;fill-opacity: 0;stroke-opacity:0;stroke-width: 1;stroke:%stroke%;" rx="4" height="48" width="20" y="251" x="341"/><text style="font-weight:Normal; font-size: 12px; text-anchor: start; font-family: arial,helvetica; fill: #333333;" y="272" x="341"><tspan x="341" font-weight="bold" font-size="24" dy="14">r</tspan></text></g><g transform="translate(0,0)"><g transform="matrix(1,0,0,1,448,291)"><path style="fill:none;stroke:#333333;stroke-width:3.0;" d="m10.913375369458128,0.10301948460087994l-10.81639014778325,23.679316153362663l7.2252630541871925,-2.183176367064739l-1.0684508374384236,42.17889629164047l10.864701477832512,1.1559034569453173l-2.1369016748768472,-44.06449277184161l7.937569655172414,0.8989652796983029z"/></g></g><g transform="translate(0,0)"><rect style="fill: #000000;fill-opacity: 0;stroke-opacity:0;stroke-width: 1;stroke:%stroke%;" rx="4" height="48" width="20" y="253" x="455"/><text style="font-weight:Normal; font-size: 12px; text-anchor: start; font-family: arial,helvetica; fill: #333333;" y="274" x="455"><tspan x="455" font-weight="bold" font-size="24" dy="14">r</tspan></text></g><g transform="translate(0,0)"><g transform="matrix(1,0,0,1,290,426)"><path style="fill:none;stroke:#333333;stroke-width:3.0;" d="m9.93350889081239,61.95501523109358l-9.876419294895287,-22.958745208660414l7.173358138386451,2.3156256866728797l-1.984250765235805,-41.24569456542182l11.131083572896232,0.8530233237007446l-2.0705210102505274,41.328570060138965l6.65572788582382,-1.3404490944937724z"/></g></g><g transform="translate(0,0)"><rect style="fill: #000000;fill-opacity: 0;stroke-opacity:0;stroke-width: 1;stroke:%stroke%;" rx="4" height="48" width="28" y="473" x="372"/><text style="font-weight:Normal; font-size: 12px; text-anchor: start; font-family: arial,helvetica; fill: #333333;" y="494" x="372"><tspan x="372" font-weight="bold" font-size="24" dy="14">w</tspan></text></g><g transform="translate(0,0)"><g transform="matrix(1,0,0,1,370,425)"><path style="fill:none;stroke:#333333;stroke-width:3.0;" d="m10.913375369458128,0.10301948460087994l-10.81639014778325,23.679316153362663l7.2252630541871925,-2.183176367064739l-1.0684508374384236,42.17889629164047l10.864701477832512,1.1559034569453173l-2.1369016748768472,-44.06449277184161l7.937569655172414,0.8989652796983029z"/></g></g><g transform="translate(0,0)"><rect style="fill: #000000;fill-opacity: 0;stroke-opacity:0;stroke-width: 1;stroke:%stroke%;" rx="4" height="48" width="20" y="473" x="295"/><text style="font-weight:Normal; font-size: 12px; text-anchor: start; font-family: arial,helvetica; fill: #333333;" y="494" x="295"><tspan x="295" font-weight="bold" font-size="24" dy="14">r</tspan></text></g><g transform="translate(0,0)"><g transform="matrix(1,0,0,1,491,427)"><path style="fill:none;stroke:#333333;stroke-width:3.0;" d="m9.93350889081239,61.95501523109358l-9.876419294895287,-22.958745208660414l7.173358138386451,2.3156256866728797l-1.984250765235805,-41.24569456542182l11.131083572896232,0.8530233237007446l-2.0705210102505274,41.328570060138965l6.65572788582382,-1.3404490944937724z"/></g></g><g transform="translate(0,0)"><rect style="fill: #000000;fill-opacity: 0;stroke-opacity:0;stroke-width: 1;stroke:%stroke%;" rx="4" height="48" width="20" y="38" x="229"/><text style="font-weight:Normal; font-size: 12px; text-anchor: start; font-family: arial,helvetica; fill: #333333;" y="59" x="229"><tspan x="229" font-weight="bold" font-size="24" dy="14">w</tspan></text></g><g transform="translate(0,0)"><rect style="fill: #000000;fill-opacity: 0;stroke-opacity:0;stroke-width: 1;stroke:%stroke%;" rx="4" height="48" width="20" y="474" x="496"/><text style="font-weight:Normal; font-size: 12px; text-anchor: start; font-family: arial,helvetica; fill: #333333;" y="495" x="496"><tspan x="496" font-weight="bold" font-size="24" dy="14">r</tspan></text></g><g transform="translate(0,0)"><g transform="matrix(1,0,0,1,236,620)"><path style="fill:none;stroke:#333333;stroke-width:3.0;" d="m2.2620587372241197,0.07507387939271586l143.58493149671563,1.667685857497127l-3.2244809121976195,60.15767110170476l-142.44694228056184,-0.23805662188797044z"/></g><text style="font-weight:bold; font-size: 24px; text-anchor: middle; font-family: arial,helvetica; fill: #333333;" y="659" x="309">a</text></g><g transform="translate(0,0)"><g transform="matrix(1,0,0,1,379,621)"><path style="fill:none;stroke:#333333;stroke-width:3.0;" d="m2.2620587372241197,0.07507387939271586l143.58493149671563,1.667685857497127l-3.2244809121976195,60.15767110170476l-142.44694228056184,-0.23805662188797044z"/></g><text style="font-weight:bold; font-size: 24px; text-anchor: middle; font-family: arial,helvetica; fill: #333333;" y="660" x="452">b</text></g><g transform="translate(0,0)"><rect style="fill: #000000;fill-opacity: 0;stroke-opacity:0;stroke-width: 1;stroke:%stroke%;" rx="4" height="48" width="20" y="527" x="321"/><text style="font-weight:Normal; font-size: 12px; text-anchor: start; font-family: arial,helvetica; fill: #333333;" y="548" x="321"><tspan x="321" font-weight="bold" font-size="24" dy="14">w</tspan></text></g><g transform="translate(0,0)"><rect style="fill: #000000;fill-opacity: 0;stroke-opacity:0;stroke-width: 1;stroke:%stroke%;" rx="4" height="48" width="20" y="728" x="341"/><text style="font-weight:Normal; font-size: 12px; text-anchor: start; font-family: arial,helvetica; fill: #333333;" y="749" x="341"><tspan x="341" font-weight="bold" font-size="24" dy="14">r</tspan></text></g><g transform="translate(0,0)"><path style="fill:none;stroke:#333333;stroke-width:2;" d="M331,577 C331,598 356,619  381,619"/><text style="font-weight:Normal; font-size: 12px; text-anchor: middle; font-family: arial,helvetica; fill: #333333;" y="597" x="377"/><text style="font-weight:Normal; font-size: 12px; text-anchor: start; font-family: arial,helvetica; fill: #333333;" y="605" x="346"/><text style="font-weight:Normal; font-size: 12px; text-anchor: middle; font-family: arial,helvetica; fill: #333333;" y="574" x="350"/></g><g transform="translate(0,0)"><rect style="fill: #000000;fill-opacity: 0;stroke-opacity:0;stroke-width: 1;stroke:%stroke%;" rx="4" height="48" width="20" y="525" x="419"/><text style="font-weight:Normal; font-size: 12px; text-anchor: start; font-family: arial,helvetica; fill: #333333;" y="546" x="419"><tspan x="419" font-weight="bold" font-size="24" dy="17">w1</tspan></text></g><g transform="translate(0,0)"><path style="fill:none;stroke:#333333;stroke-width:2;" d="M429,575 C405,597 301,597  381,619"/><text style="font-weight:Normal; font-size: 12px; text-anchor: middle; font-family: arial,helvetica; fill: #333333;" y="619" x="402"/><text style="font-weight:Normal; font-size: 12px; text-anchor: start; font-family: arial,helvetica; fill: #333333;" y="597" x="366"/><text style="font-weight:Normal; font-size: 12px; text-anchor: middle; font-family: arial,helvetica; fill: #333333;" y="595" x="429"/></g><g transform="translate(0,0)"><rect style="fill: #000000;fill-opacity: 0;stroke-opacity:0;stroke-width: 1;stroke:%stroke%;" rx="4" height="48" width="20" y="728" x="484"/><text style="font-weight:Normal; font-size: 12px; text-anchor: start; font-family: arial,helvetica; fill: #333333;" y="749" x="484"><tspan x="484" font-weight="bold" font-size="24" dy="17">r1</tspan></text></g><g transform="translate(0,0)"><path style="fill:none;stroke:#333333;stroke-width:2;" d="M351,726 C351,705.5 452,705.5  452,685"/><text style="font-weight:Normal; font-size: 12px; text-anchor: middle; font-family: arial,helvetica; fill: #333333;" y="678" x="432"/><text style="font-weight:Normal; font-size: 12px; text-anchor: start; font-family: arial,helvetica; fill: #333333;" y="705" x="401"/><text style="font-weight:Normal; font-size: 12px; text-anchor: middle; font-family: arial,helvetica; fill: #333333;" y="707" x="357"/></g><g transform="translate(0,0)"><path style="fill:none;stroke:#333333;stroke-width:2;" d="M494,726 C494,705.5 452,705.5  452,685"/><text style="font-weight:Normal; font-size: 12px; text-anchor: middle; font-family: arial,helvetica; fill: #333333;" y="706" x="453"/><text style="font-weight:Normal; font-size: 12px; text-anchor: start; font-family: arial,helvetica; fill: #333333;" y="705" x="473"/><text style="font-weight:Normal; font-size: 12px; text-anchor: middle; font-family: arial,helvetica; fill: #333333;" y="727" x="473"/></g><g transform="translate(0,0)"><rect style="fill: #000000;fill-opacity: 0;stroke-opacity:0;stroke-width: 1;stroke:%stroke%;" rx="4" height="48" width="20" y="40" x="282"/><text style="font-weight:Normal; font-size: 12px; text-anchor: start; font-family: arial,helvetica; fill: #333333;" y="61" x="282"><tspan x="282" font-weight="bold" font-size="24" dy="14">r</tspan></text></g></svg>