<svg height="209" width="574" viewBox="282 143 574 209" style="background-color:transparent;" preserveAspectRatio="xMinYMin meet" xmlns:xlink="http://www.w3.org/1999/xlink" xmlns="http://www.w3.org/2000/svg"><g transform="matrix(1,0,0,1,-612,50)"><g transform="matrix(1,0,0,1,1111,103)"><path style="fill:none;stroke:#333333;stroke-width:3.0;" d="m7.956454825957177,2.4359374209793474l132.22725731341956,-2.412667245397489c10.615901756809432,-0.19370822779847358 12.235331508159817,4.6052871746785 12.445625667910003,11.527181248378987l1.586205470393508,52.21729687545672c0.27239078560602753,8.967100034287713 -1.8312283654026995,14.43697857969063 -10.493349128986349,14.207895824740136l-136.86416117527415,-3.6190008680962333c-3.784323019987001,-0.10006175500199277 -6.913132239557928,-3.3486373765769906 -6.832858072050155,-7.506049067156128l1.0981418263717262,-56.90860770076986c0.08022090762919416,-4.157429785583477 3.047980490440836,-7.436986467256625 6.832858072050155,-7.506049067156128z"/></g><text style="font-weight:bold; font-size: 18px; text-anchor: middle; font-family: arial,helvetica; fill: #333333;" y="137" x="1188">Partition</text><text style="font-weight:bold; font-size: 18px; text-anchor: middle; font-family: arial,helvetica; fill: #333333;" y="162" x="1188">tolerance</text></g><g transform="matrix(1,0,0,1,-810,166)"><g transform="matrix(1,0,0,1,1107,114)"><path style="fill:none;stroke:#333333;stroke-width:3.0;" d="m9.196421811820633,1.6551882475885311l152.8341026090174,-1.6393764616162425c12.27032800462389,-0.13162225735024488 14.142136418522385,3.1292335930507758 14.385203694077795,7.8325718738985435l1.8334063229223663,35.48098377434879c0.31484129764852536,6.093029510477548 -2.1166146041667564,9.809741855430813 -12.128676265971233,9.65408306040035l-158.19364083895326,-2.4590646924243638c-4.374087646478482,-0.06799067968084124 -7.9905034976708516,-2.2753561661356474 -7.897719070291737,-5.100264109734292l1.2692808122997874,-38.668669335138496c0.09272286725971793,-2.8249202389221066 3.522990437003044,-5.053336958520528 7.897719070291737,-5.100264109734292z"/></g><text style="font-weight:bold; font-size: 18px; text-anchor: middle; font-family: arial,helvetica; fill: #333333;" y="148" x="1196">Consistency</text></g><g transform="matrix(1,0,0,1,-444,129)"><g transform="matrix(1,0,0,1,1120,155)"><path style="fill:none;stroke:#333333;stroke-width:3.0;" d="m8.524773027811262,1.6551882475885311l141.67206140723522,-1.6393764616162425c11.374180453724392,-0.13162225735024488 13.109283758742661,3.1292335930507758 13.334598929903574,7.8325718738985435l1.6995058611359015,35.48098377434879c0.2918472702921724,6.093029510477548 -1.9620303915028923,9.809741855430813 -11.242874066771087,9.65408306040035l-146.64017268779375,-2.4590646924243638c-4.05463180712893,-0.06799067968084124 -7.406927399526351,-2.2753561661356474 -7.32091936291088,-5.100264109734292l1.176580528255421,-38.668669335138496c0.0859509724598509,-2.8249202389221066 3.2656933826151815,-5.053336958520528 7.32091936291088,-5.100264109734292z"/></g><text style="font-weight:bold; font-size: 18px; text-anchor: middle; font-family: arial,helvetica; fill: #333333;" y="189" x="1202">Availability</text></g><g transform="translate(0,0)"><path style="fill:none;stroke:#333333;stroke-width:2;" d="M576,233 C576,270.5 527.5,308  479,308"/><path style="fill:rgb(51,51,51);stroke:#333333;stroke-width:2;" d="M479,308 496.688181812247,317.3342500596939 495.9277885830948,297.34871023368316Z"/><text style="font-weight:Normal; font-size: 12px; text-anchor: middle; font-family: arial,helvetica; fill: #333333;" y="309" x="498"/><text style="font-weight:Normal; font-size: 12px; text-anchor: start; font-family: arial,helvetica; fill: #333333;" y="284" x="545"/><text style="font-weight:Normal; font-size: 12px; text-anchor: middle; font-family: arial,helvetica; fill: #333333;" y="252" x="574"/></g><g transform="translate(0,0)"><path style="fill:none;stroke:#333333;stroke-width:2;" d="M576,233 C576,271.5 624,310  672,310"/><path style="fill:rgb(51,51,51);stroke:#333333;stroke-width:2;" d="M672,310 655.0873463942875,299.3246944768229 654.298587420912,319.30913490636505Z"/><text style="font-weight:Normal; font-size: 12px; text-anchor: middle; font-family: arial,helvetica; fill: #333333;" y="289" x="670"/><text style="font-weight:Normal; font-size: 12px; text-anchor: start; font-family: arial,helvetica; fill: #333333;" y="285" x="606"/><text style="font-weight:Normal; font-size: 12px; text-anchor: middle; font-family: arial,helvetica; fill: #333333;" y="229" x="596"/></g></svg>