<svg height="228" width="533" viewBox="381 219 533 228" style="background-color:transparent;" preserveAspectRatio="xMinYMin meet" xmlns:xlink="http://www.w3.org/1999/xlink" xmlns="http://www.w3.org/2000/svg"><g transform="translate(0,0)"><g transform="matrix(1,0,0,1,396,229)"><path style="fill:none;stroke:#333333;stroke-width:3.0;" d="m88.74526006612142,29.26881934366494c0,4.810975287874417 -3.8345983184724823,8.710332960793401 -8.565674381901658,8.710332960793401l-71.58745818944118,0c-4.731076063429176,0 -8.565674381901658,-3.8993576729189847 -8.565674381901658,-8.710332960793401l0,-18.043706595790123c0,-4.810975287874417 3.8345983184724823,-8.710332960793401 8.565674381901658,-8.710332960793401l72.81083945213376,-2.488593724047799c4.731557393762039,0 8.566155712234522,5.143889067438901 8.566155712234522,9.954864355313317l-1.223878637369872,19.287748531187916z"/></g><text style="font-weight:bold; font-size: 12px; text-anchor: middle; font-family: arial,helvetica,sans-serif; fill: #333333;" y="252" x="441">State A</text></g><g transform="translate(0,0)"><g transform="matrix(1,0,0,1,536,395)"><path style="fill:none;stroke:#333333;stroke-width:3.0;" d="m0.6197421197874301,0.04480215383113688l39.338337396360444,0.9952318826998984l-0.8834194279993478,35.90054565746897l-39.026559528921055,-0.14206604854604687z"/></g><text style="font-weight:bold; font-size: 12px; text-anchor: middle; font-family: arial,helvetica,sans-serif; fill: #333333;" y="419" x="556">op1</text></g><g transform="translate(0,0)"><g transform="matrix(1,0,0,1,579,395)"><path style="fill:none;stroke:#333333;stroke-width:3.0;" d="m0.6197421197874301,0.04480215383113688l39.338337396360444,0.9952318826998984l-0.8834194279993478,35.90054565746897l-39.026559528921055,-0.14206604854604687z"/></g><text style="font-weight:bold; font-size: 12px; text-anchor: middle; font-family: arial,helvetica,sans-serif; fill: #333333;" y="419" x="599">op2</text></g><g transform="translate(0,0)"><g transform="matrix(1,0,0,1,622,395)"><path style="fill:none;stroke:#333333;stroke-width:3.0;" d="m0.6197421197874301,0.04480215383113688l39.338337396360444,0.9952318826998984l-0.8834194279993478,35.90054565746897l-39.026559528921055,-0.14206604854604687z"/></g><text style="font-weight:bold; font-size: 12px; text-anchor: middle; font-family: arial,helvetica,sans-serif; fill: #333333;" y="419" x="642">op3</text></g><g transform="translate(0,0)"><g transform="matrix(1,0,0,1,665,395)"><path style="fill:none;stroke:#333333;stroke-width:3.0;" d="m0.6197421197874301,0.04480215383113688l39.338337396360444,0.9952318826998984l-0.8834194279993478,35.90054565746897l-39.026559528921055,-0.14206604854604687z"/></g><text style="font-weight:bold; font-size: 12px; text-anchor: middle; font-family: arial,helvetica,sans-serif; fill: #333333;" y="419" x="685">op4</text></g><g transform="translate(0,0)"><path style="fill:none;stroke:#333333;stroke-width:2;stroke-dasharray:4,3;" d="M556,393 C556,321.5 513,321.5  513,250"/><text style="font-weight:Normal; font-size: 12px; text-anchor: middle; font-family: sans-serif; fill: #333333;" y="269" x="503"/><text style="font-weight:Normal; font-size: 12px; text-anchor: start; font-family: sans-serif; fill: #333333;" y="321" x="534"/><text style="font-weight:Normal; font-size: 12px; text-anchor: middle; font-family: sans-serif; fill: #333333;" y="384" x="537"/></g><g transform="translate(0,0)"><path style="fill:none;stroke:#333333;stroke-width:2;stroke-dasharray:4,3;" d="M599,393 C599,393 605.9878075417313,352.9165456859671 615,335 628.8729618929967,307.42007905329365 672,262 672,262"/><text style="font-weight:Normal; font-size: 12px; text-anchor: middle; font-family: sans-serif; fill: #333333;" y="265" x="651"/><text style="font-weight:Normal; font-size: 12px; text-anchor: start; font-family: sans-serif; fill: #333333;" y="323" x="615"/><text style="font-weight:Normal; font-size: 12px; text-anchor: middle; font-family: sans-serif; fill: #333333;" y="376" x="587"/></g><g transform="translate(0,0)"><g transform="matrix(1,0,0,1,809,308)"><path style="fill:none;stroke:#333333;stroke-width:3.0;" d="m88.74526006612142,29.26881934366494c0,4.810975287874417 -3.8345983184724823,8.710332960793401 -8.565674381901658,8.710332960793401l-71.58745818944118,0c-4.731076063429176,0 -8.565674381901658,-3.8993576729189847 -8.565674381901658,-8.710332960793401l0,-18.043706595790123c0,-4.810975287874417 3.8345983184724823,-8.710332960793401 8.565674381901658,-8.710332960793401l72.81083945213376,-2.488593724047799c4.731557393762039,0 8.566155712234522,5.143889067438901 8.566155712234522,9.954864355313317l-1.223878637369872,19.287748531187916z"/></g><text style="font-weight:bold; font-size: 12px; text-anchor: middle; font-family: arial,helvetica,sans-serif; fill: #333333;" y="331" x="854">State E</text></g><g transform="translate(0,0)"><path style="fill:none;stroke:#333333;stroke-width:2;" d="M750,327 C777.5,327 777.5,327  805,327"/><polyline style="fill:#ffffff;stroke:#333333;stroke-width:2;fill-opacity:0;" points="787,337 805,327 787,317"/><text style="font-weight:Normal; font-size: 12px; text-anchor: middle; font-family: sans-serif; fill: #333333;" y="312" x="791"/><text style="font-weight:Normal; font-size: 12px; text-anchor: start; font-family: sans-serif; fill: #333333;" y="327" x="777"/><text style="font-weight:Normal; font-size: 12px; text-anchor: middle; font-family: sans-serif; fill: #333333;" y="312" x="764"/></g><g transform="translate(0,0)"><path style="fill:none;stroke:#333333;stroke-width:2;stroke-dasharray:4,3;" d="M643,393 C643,393 655.1848533224787,379.93434085513485 663,376 693.2606103383677,360.7660497661554 737.3883152561624,376.28181161009013 762,353 768.0538435240735,347.2732711754024 769,329 769,329"/><text style="font-weight:Normal; font-size: 12px; text-anchor: middle; font-family: sans-serif; fill: #333333;" y="340" x="750"/><text style="font-weight:Normal; font-size: 12px; text-anchor: start; font-family: sans-serif; fill: #333333;" y="358" x="712"/><text style="font-weight:Normal; font-size: 12px; text-anchor: middle; font-family: sans-serif; fill: #333333;" y="372" x="643"/></g><g transform="translate(0,0)"><g transform="matrix(1,0,0,1,657,308)"><path style="fill:none;stroke:#333333;stroke-width:3.0;" d="m89.73131851130054,29.26881934366494c0,4.810975287874417 -3.8772049664555097,8.710332960793401 -8.660848541700565,8.710332960793401l-72.38287439154608,0c-4.783643575245056,0 -8.660848541700565,-3.8993576729189847 -8.660848541700565,-8.710332960793401l0,-18.043706595790123c0,-4.810975287874417 3.8772049664555097,-8.710332960793401 8.660848541700565,-8.710332960793401l73.6198487793797,-2.488593724047799c4.784130253692728,0 8.661335220148239,5.143889067438901 8.661335220148239,9.954864355313317l-1.2374772888962038,19.287748531187916z"/></g><text style="font-weight:bold; font-size: 12px; text-anchor: middle; font-family: arial,helvetica,sans-serif; fill: #333333;" y="331" x="702">State D</text></g><g transform="translate(0,0)"><g transform="matrix(1,0,0,1,551,229)"><path style="fill:none;stroke:#333333;stroke-width:3.0;" d="m88.74526006612142,29.26881934366494c0,4.810975287874417 -3.8345983184724823,8.710332960793401 -8.565674381901658,8.710332960793401l-71.58745818944118,0c-4.731076063429176,0 -8.565674381901658,-3.8993576729189847 -8.565674381901658,-8.710332960793401l0,-18.043706595790123c0,-4.810975287874417 3.8345983184724823,-8.710332960793401 8.565674381901658,-8.710332960793401l72.81083945213376,-2.488593724047799c4.731557393762039,0 8.566155712234522,5.143889067438901 8.566155712234522,9.954864355313317l-1.223878637369872,19.287748531187916z"/></g><text style="font-weight:bold; font-size: 12px; text-anchor: middle; font-family: arial,helvetica,sans-serif; fill: #333333;" y="252" x="596">State B</text></g><g transform="translate(0,0)"><g transform="matrix(1,0,0,1,396,308)"><path style="fill:none;stroke:#333333;stroke-width:3.0;" d="m89.73131851130054,29.26881934366494c0,4.810975287874417 -3.8772049664555097,8.710332960793401 -8.660848541700565,8.710332960793401l-72.38287439154608,0c-4.783643575245056,0 -8.660848541700565,-3.8993576729189847 -8.660848541700565,-8.710332960793401l0,-18.043706595790123c0,-4.810975287874417 3.8772049664555097,-8.710332960793401 8.660848541700565,-8.710332960793401l73.6198487793797,-2.488593724047799c4.784130253692728,0 8.661335220148239,5.143889067438901 8.661335220148239,9.954864355313317l-1.2374772888962038,19.287748531187916z"/></g><text style="font-weight:bold; font-size: 12px; text-anchor: middle; font-family: arial,helvetica,sans-serif; fill: #333333;" y="331" x="441">State C</text></g><g transform="translate(0,0)"><path style="fill:none;stroke:#333333;stroke-width:2;" d="M488,248 C517.5,248 517.5,248  547,248"/><polyline style="fill:#ffffff;stroke:#333333;stroke-width:2;fill-opacity:0;" points="529,258 547,248 529,238"/><text style="font-weight:Normal; font-size: 12px; text-anchor: middle; font-family: sans-serif; fill: #333333;" y="233" x="533"/><text style="font-weight:Normal; font-size: 12px; text-anchor: start; font-family: sans-serif; fill: #333333;" y="248" x="517"/><text style="font-weight:Normal; font-size: 12px; text-anchor: middle; font-family: sans-serif; fill: #333333;" y="233" x="502"/></g><g transform="translate(0,0)"><path style="fill:none;stroke:#333333;stroke-width:2;" d="M441,269 C441,286.5 441,286.5  441,304"/><polyline style="fill:#ffffff;stroke:#333333;stroke-width:2;fill-opacity:0;" points="431,286 441,304 451,286"/><text style="font-weight:Normal; font-size: 12px; text-anchor: middle; font-family: sans-serif; fill: #333333;" y="290" x="456"/><text style="font-weight:Normal; font-size: 12px; text-anchor: start; font-family: sans-serif; fill: #333333;" y="286" x="441"/><text style="font-weight:Normal; font-size: 12px; text-anchor: middle; font-family: sans-serif; fill: #333333;" y="283" x="456"/></g><g transform="translate(0,0)"><path style="fill:none;stroke:#333333;stroke-width:2;" d="M643,250 C672.5,250 702,277  702,304"/><polyline style="fill:#ffffff;stroke:#333333;stroke-width:2;fill-opacity:0;" points="691,287 702,304 711,286"/><text style="font-weight:Normal; font-size: 12px; text-anchor: middle; font-family: sans-serif; fill: #333333;" y="284" x="700"/><text style="font-weight:Normal; font-size: 12px; text-anchor: start; font-family: sans-serif; fill: #333333;" y="266" x="683"/><text style="font-weight:Normal; font-size: 12px; text-anchor: middle; font-family: sans-serif; fill: #333333;" y="248" x="663"/></g></svg>