<svg height="139" width="384" viewBox="356 252 384 139" style="background-color:transparent;" preserveAspectRatio="xMinYMin meet" xmlns:xlink="http://www.w3.org/1999/xlink" xmlns="http://www.w3.org/2000/svg"><g transform="matrix(1,0,0,1,-634,24)"><g transform="matrix(1,0,0,1,1140,245)"><path style="fill:none;stroke:#333333;stroke-width:3.0;" d="m0.03469242091847677,11.37604499864167l0.8276732485979085,50.251855145751215l18.217646201841685,11.347303704923467l-0.8282250812581321,-48.63116920517899"/><path style="fill:none;stroke:#333333;stroke-width:3.0;" d="m42.2660401485311,0.030449090535174955c0,0 -39.74777614915867,7.294397367341528 -40.57538988639126,9.726472138266073c-0.828227786320192,2.4315981764639956 16.56120144944954,14.589615536254005 16.56120144944954,14.589615536254005l44.71481110358417,-13.778875403917432l-20.700757919745445,-10.537251986807691z"/><path style="fill:none;stroke:#333333;stroke-width:3.0;" d="m62.96666281517355,10.568482162708769l-0.8276705435358485,50.251722758401066l-43.05890736360401,12.158083553465083l-0.9087926496507958,-48.63116920517899"/><path style="fill:none;stroke:#333333;stroke-width:3.0;" d="m6.658848393251103,30.01618390017486l5.796488133858837,4.052747472761756"/></g><text style="font-weight:bold; font-size: 12px; text-anchor: middle; font-family: arial,helvetica; fill: #333333;" y="333" x="1171">master</text></g><g transform="matrix(1,0,0,1,131,4)"><rect style="fill: #000000;fill-opacity: 0;stroke-opacity:0;stroke-width: 1;stroke:%stroke%;" rx="4" height="34" width="40" y="268" x="459"/><text style="font-weight:Normal; font-size: 12px; text-anchor: start; font-family: arial,helvetica; fill: #333333;" y="289" x="459"><tspan x="459">write</tspan></text></g><g transform="matrix(1,0,0,1,121,-31)"><g transform="matrix(1,0,0,1,541,300)"><path style="fill:none;stroke:#333333;stroke-width:3.0;" d="m0.03469242091847677,11.37604499864167l0.8276732485979085,50.251855145751215l18.217646201841685,11.347303704923467l-0.8282250812581321,-48.63116920517899"/><path style="fill:none;stroke:#333333;stroke-width:3.0;" d="m42.2660401485311,0.030449090535174955c0,0 -39.74777614915867,7.294397367341528 -40.57538988639126,9.726472138266073c-0.828227786320192,2.4315981764639956 16.56120144944954,14.589615536254005 16.56120144944954,14.589615536254005l44.71481110358417,-13.778875403917432l-20.700757919745445,-10.537251986807691z"/><path style="fill:none;stroke:#333333;stroke-width:3.0;" d="m62.96666281517355,10.568482162708769l-0.8276705435358485,50.251722758401066l-43.05890736360401,12.158083553465083l-0.9087926496507958,-48.63116920517899"/><path style="fill:none;stroke:#333333;stroke-width:3.0;" d="m6.658848393251103,30.01618390017486l5.796488133858837,4.052747472761756"/></g><text style="font-weight:bold; font-size: 12px; text-anchor: middle; font-family: arial,helvetica; fill: #333333;" y="388" x="572">slave</text></g><g transform="matrix(1,0,0,1,-765,127)"><g transform="matrix(1,0,0,1,1136,152)"><path style="fill:none;stroke:#333333;stroke-width:3.0;" d="m14.190753931198135,3.89417399977717c5.29719756786198,-6.400184924071554 14.67927161746068,-4.132183734995935 16.737702323112334,1.198708883139804c2.057068408692256,5.329141115587113 -1.2347919741327575,13.993337695151306 -9.877620587158376,13.19387408740095c-8.642833621470322,-0.7995609134475014 -11.935374151086096,-8.263589024414703 -6.8600817359539565,-14.392582970540754z"/><path style="fill:none;stroke:#333333;stroke-width:3.0;" d="m9.800449469475254,50.00160284106687l-9.739440602850882,-0.4001210266637612c0,0 -0.13614154731309988,-17.856179260447508 0,-20.654496498968047c0.13681969072597708,-2.7984145442176818 2.88139830558026,-3.9979991786317983 5.76211546268082,-3.9979991786317983c2.8807181587895014,0 29.355127475633452,-1.3336718850811067 31.55176120443824,-0.9342319982973665c2.1959325465462722,0.4006075551494905 5.212098082212945,1.8679774681090038 5.350291088476668,5.730916339102354c0.13817297248490934,3.8643011507533918 0.2743225333095351,20.38953308563988 0.2743225333095351,20.38953308563988l-9.053985862395242,0.534986722907918"/><path style="fill:none;stroke:#333333;stroke-width:3.0;" d="m10.075314918190667,36.00836245161272l0.1361395439352184,17.591605069907928l24.008922276346038,0.39953719248088604l-1.2347819572433503,-18.92089819861747"/></g><text style="font-weight:bold; font-size: 12px; text-anchor: middle; font-family: arial,helvetica; fill: #333333;" y="221" x="1157">client</text></g><g transform="matrix(1,0,0,1,-712,-234)"><g transform="matrix(1,0,0,1,1141,522)"><path style="fill:none;stroke:#333333;stroke-width:3.0;" d="m61.38,6.81444l-21.850288000000003,-6.51162l1.8271152,4.193406l-41.589476000000005,-1.1787599999999998l0.60903716,7.250819999999999l41.55054,-1.0018799999999999l-4.2632688,5.1364019999999995z"/></g></g><g transform="matrix(1,0,0,1,110,5)"><g transform="matrix(1,0,0,1,476,293)"><path style="fill:none;stroke:#333333;stroke-width:3.0;" d="m61.38,6.81444l-21.850288000000003,-6.51162l1.8271152,4.193406l-41.589476000000005,-1.1787599999999998l0.60903716,7.250819999999999l41.55054,-1.0018799999999999l-4.2632688,5.1364019999999995z"/></g></g><g transform="matrix(1,0,0,1,-581,-179)"><g transform="matrix(1,0,0,1,1013,495)"><path style="fill:none;stroke:#333333;stroke-width:3.0;" d="m0.1284876,7.930439999999999l22.56,-7.98516l-4.24362,5.254319999999999l41.89812,-1.7091779999999999l-0.9430248,7.9581l-41.27112,-1.7091779999999999l3.064836,4.959594z"/></g></g><g transform="matrix(1,0,0,1,-563,-69)"><rect style="fill: #000000;fill-opacity: 0;stroke-opacity:0;stroke-width: 1;stroke:%stroke%;" rx="4" height="34" width="40" y="331" x="1003"/><text style="font-weight:Normal; font-size: 12px; text-anchor: start; font-family: arial,helvetica; fill: #333333;" y="352" x="1003"><tspan x="1003">write</tspan></text></g><g transform="matrix(1,0,0,1,4,41)"><rect style="fill: #000000;fill-opacity: 0;stroke-opacity:0;stroke-width: 1;stroke:%stroke%;" rx="4" height="34" width="40" y="280" x="457"/><text style="font-weight:Normal; font-size: 12px; text-anchor: start; font-family: arial,helvetica; fill: #333333;" y="301" x="457"><tspan x="457">ack</tspan></text></g></svg>