<svg height="402" width="283" viewBox="228 122 283 402" style="background-color:transparent;" preserveAspectRatio="xMinYMin meet" xmlns:xlink="http://www.w3.org/1999/xlink" xmlns="http://www.w3.org/2000/svg"><g transform="translate(0,0)"><g transform="matrix(1,0,0,1,327,246)"><path style="fill:none;stroke:#333333;stroke-width:3.0;" d="m1.193003580590803,0.04601302285360004l75.72629948799386,1.0221300416917873l-1.7005823988987445,36.870830675238395l-75.12612709317304,-0.1459056714797238z"/></g><text style="font-weight:bold; font-size: 12px; text-anchor: middle; font-family: arial,helvetica; fill: #333333;" y="270" x="365">A</text></g><g transform="translate(0,0)"><g transform="matrix(1,0,0,1,399,469)"><path style="fill:none;stroke:#333333;stroke-width:3.0;" d="m1.193003580590803,0.04601302285360004l75.72629948799386,1.0221300416917873l-1.7005823988987445,36.870830675238395l-75.12612709317304,-0.1459056714797238z"/></g><text style="font-weight:bold; font-size: 12px; text-anchor: middle; font-family: arial,helvetica; fill: #333333;" y="493" x="437">B</text></g><g transform="translate(0,0)"><path style="fill:none;stroke:#333333;stroke-width:2;" d="M401,289 C401,289 407.4679782263815,307.3941419754427 408,317 408.68823743742723,329.42639199923343 403,354 403,354"/><polyline style="fill:#ffffff;stroke:#333333;stroke-width:2;fill-opacity:0;" points="397,334 403,354 416,339"/><text style="font-weight:Normal; font-size: 12px; text-anchor: middle; font-family: arial,helvetica; fill: #333333;" y="339" x="420"/><text style="font-weight:Normal; font-size: 12px; text-anchor: start; font-family: arial,helvetica; fill: #333333;" y="305" x="408"/><text style="font-weight:Normal; font-size: 12px; text-anchor: middle; font-family: arial,helvetica; fill: #333333;" y="298" x="418"/></g><g transform="translate(0,0)"><rect style="fill: #000000;fill-opacity: 0;stroke-opacity:0;stroke-width: 1;stroke:%stroke%;" rx="4" height="51" width="84" y="293" x="412"/><text style="font-weight:Normal; font-size: 12px; text-anchor: start; font-family: arial,helvetica; fill: #333333;" y="314" x="412"><tspan x="412">replicate B</tspan><tspan dy="17" x="412">replicate C</tspan></text></g><g transform="translate(0,0)"><path style="fill:none;stroke:#333333;stroke-width:2;" d="M401,289 C401,289 389.35702260395516,320.5008417723139 387,337 383.1344829295135,364.0586194934052 383.5925138480667,391.87989400397754 387,419 389.01572466843174,435.0431075077592 399,466 399,466"/><polyline style="fill:#ffffff;stroke:#333333;stroke-width:2;fill-opacity:0;" points="384,452 399,466 403,446"/><text style="font-weight:Normal; font-size: 12px; text-anchor: middle; font-family: arial,helvetica; fill: #333333;" y="446" x="410"/><text style="font-weight:Normal; font-size: 12px; text-anchor: start; font-family: arial,helvetica; fill: #333333;" y="378" x="387"/><text style="font-weight:Normal; font-size: 12px; text-anchor: middle; font-family: arial,helvetica; fill: #333333;" y="306" x="412"/></g><g transform="translate(0,0)"><rect style="fill: #000000;fill-opacity: 0;stroke-opacity:0;stroke-width: 1;stroke:%stroke%;" rx="4" height="51" width="84" y="402" x="412"/><text style="font-weight:Normal; font-size: 12px; text-anchor: start; font-family: arial,helvetica; fill: #333333;" y="423" x="412"><tspan x="412">replicate C</tspan><tspan dy="17" x="412">replicate B</tspan></text></g><g transform="translate(0,0)"><rect style="fill: #000000;fill-opacity: 0;stroke-opacity:0;stroke-width: 1;stroke:%stroke%;" rx="4" height="41" width="71" y="244" x="243"/><text style="font-weight:Normal; font-size: 12px; text-anchor: start; font-family: arial,helvetica; fill: #333333;" y="265" x="243"><tspan x="243" font-weight="bold" font-size="18" dy="8">node 1</tspan></text></g><g transform="translate(0,0)"><rect style="fill: #000000;fill-opacity: 0;stroke-opacity:0;stroke-width: 1;stroke:%stroke%;" rx="4" height="41" width="71" y="355" x="243"/><text style="font-weight:Normal; font-size: 12px; text-anchor: start; font-family: arial,helvetica; fill: #333333;" y="376" x="243"><tspan x="243" font-weight="bold" font-size="18" dy="8">node 2</tspan></text></g><g transform="translate(0,0)"><rect style="fill: #000000;fill-opacity: 0;stroke-opacity:0;stroke-width: 1;stroke:%stroke%;" rx="4" height="41" width="71" y="468" x="243"/><text style="font-weight:Normal; font-size: 12px; text-anchor: start; font-family: arial,helvetica; fill: #333333;" y="489" x="243"><tspan x="243" font-weight="bold" font-size="18" dy="8">node 3</tspan></text></g><g transform="translate(0,0)"><g transform="matrix(1,0,0,1,403,246)"><path style="fill:none;stroke:#333333;stroke-width:3.0;" d="m1.193003580590803,0.04601302285360004l75.72629948799386,1.0221300416917873l-1.7005823988987445,36.870830675238395l-75.12612709317304,-0.1459056714797238z"/></g><text style="font-weight:bold; font-size: 12px; text-anchor: middle; font-family: arial,helvetica; fill: #333333;" y="270" x="441">C</text></g><g transform="translate(0,0)"><g transform="matrix(1,0,0,1,396,176)"><path style="fill:none;stroke:#333333;stroke-width:3.0;" d="m8.514436192124906,66.95138742714951l-8.465502252767388,-24.810256919036252l6.148592690045529,2.502369693662628l-1.7007863702021186,-44.57196025618165l9.5409287767682,0.9218155272249982l-1.7747322945004522,44.66151925853726l5.704909616420417,-1.4485498279206894z"/></g></g><g transform="translate(0,0)"><rect style="fill: #000000;fill-opacity: 0;stroke-opacity:0;stroke-width: 1;stroke:%stroke%;" rx="4" height="51" width="43" y="132" x="387"/><text style="font-weight:Normal; font-size: 12px; text-anchor: start; font-family: arial,helvetica; fill: #333333;" y="153" x="387"><tspan x="387">write b</tspan><tspan dy="17" x="387">write c</tspan></text></g><g transform="translate(0,0)"><g transform="matrix(1,0,0,1,327,356)"><path style="fill:none;stroke:#333333;stroke-width:3.0;" d="m1.193003580590803,0.04601302285360004l75.72629948799386,1.0221300416917873l-1.7005823988987445,36.870830675238395l-75.12612709317304,-0.1459056714797238z"/></g><text style="font-weight:bold; font-size: 12px; text-anchor: middle; font-family: arial,helvetica; fill: #333333;" y="380" x="365">A</text></g><g transform="translate(0,0)"><g transform="matrix(1,0,0,1,403,356)"><path style="fill:none;stroke:#333333;stroke-width:3.0;" d="m1.193003580590803,0.04601302285360004l75.72629948799386,1.0221300416917873l-1.7005823988987445,36.870830675238395l-75.12612709317304,-0.1459056714797238z"/></g><text style="font-weight:bold; font-size: 12px; text-anchor: middle; font-family: arial,helvetica; fill: #333333;" y="380" x="441">C</text></g><g transform="translate(0,0)"><g transform="matrix(1,0,0,1,323,469)"><path style="fill:none;stroke:#333333;stroke-width:3.0;" d="m1.193003580590803,0.04601302285360004l75.72629948799386,1.0221300416917873l-1.7005823988987445,36.870830675238395l-75.12612709317304,-0.1459056714797238z"/></g><text style="font-weight:bold; font-size: 12px; text-anchor: middle; font-family: arial,helvetica; fill: #333333;" y="493" x="361">A</text></g></svg>