<svg height="256" width="502" viewBox="427 108 502 256" style="background-color:transparent;" preserveAspectRatio="xMinYMin meet" xmlns:xlink="http://www.w3.org/1999/xlink" xmlns="http://www.w3.org/2000/svg"><g transform="translate(0,0)"><g transform="matrix(1,0,0,1,507,169)"><path style="fill:none;stroke:#333333;stroke-width:3.0;" d="m2.3705136081869203,0.03874780871882109l150.4691405410787,0.8607410877404525l-3.3790793120975056,31.04912056862181l-149.27659019812305,-0.12286793387766216z"/></g><text style="font-weight:bold; font-size: 12px; text-anchor: middle; font-family: arial,helvetica; fill: #333333;" y="193" x="583">a</text></g><g transform="matrix(1,0,0,1,3,-5)"><rect style="fill: #000000;fill-opacity: 0;stroke-opacity:0;stroke-width: 1;stroke:%stroke%;" rx="4" height="41" width="100" y="290" x="695"/><text style="font-weight:Normal; font-size: 12px; text-anchor: start; font-family: arial,helvetica; fill: #333333;" y="311" x="695"><tspan x="695" font-weight="bold" font-size="18" dy="8">read</tspan></text></g><g transform="matrix(1,0,0,1,15,5)"><rect style="fill: #000000;fill-opacity: 0;stroke-opacity:0;stroke-width: 1;stroke:%stroke%;" rx="4" height="41" width="100" y="157" x="427"/><text style="font-weight:Normal; font-size: 12px; text-anchor: start; font-family: arial,helvetica; fill: #333333;" y="178" x="427"><tspan x="427" font-weight="bold" font-size="18" dy="8">Master</tspan></text></g><g transform="matrix(1,0,0,1,16,6)"><rect style="fill: #000000;fill-opacity: 0;stroke-opacity:0;stroke-width: 1;stroke:%stroke%;" rx="4" height="41" width="100" y="240" x="439"/><text style="font-weight:Normal; font-size: 12px; text-anchor: start; font-family: arial,helvetica; fill: #333333;" y="261" x="439"><tspan x="439" font-weight="bold" font-size="18" dy="8">Slave</tspan></text></g><g transform="translate(0,0)"><g transform="matrix(1,0,0,1,507,253)"><path style="fill:none;stroke:#333333;stroke-width:3.0;" d="m3.269139681878694,0.03632607067389477l207.50972976580135,0.8069447697566743l-4.66003748269656,29.108550533082948l-205.86510151505857,-0.11518868801030828z"/></g><text style="font-weight:bold; font-size: 12px; text-anchor: middle; font-family: arial,helvetica; fill: #333333;" y="277" x="612">a</text></g><g transform="translate(0,0)"><g transform="matrix(1,0,0,1,658,169)"><path style="fill:none;stroke:#333333;stroke-width:3.0;" d="m2.3705136081869203,0.03874780871882109l150.4691405410787,0.8607410877404525l-3.3790793120975056,31.04912056862181l-149.27659019812305,-0.12286793387766216z"/></g><text style="font-weight:bold; font-size: 12px; text-anchor: middle; font-family: arial,helvetica; fill: #333333;" y="193" x="734">b</text></g><g transform="translate(0,0)"><g transform="matrix(1,0,0,1,653,124)"><path style="fill:none;stroke:#333333;stroke-width:3.0;" d="m7.0953634934374215,40.97025200765866l-7.054585210639491,-15.182396025081884l5.123827241704608,1.5313008573159363l-1.417321975168432,-27.27537866423056l7.950773980640165,0.5640960688988794l-1.4789435787503769,27.330183426866085l4.754091347017014,-0.8864260141007203z"/></g></g><g transform="translate(0,0)"><g transform="matrix(1,0,0,1,710,206)"><path style="fill:none;stroke:#333333;stroke-width:3.0;" d="m7.0953634934374215,40.97025200765866l-7.054585210639491,-15.182396025081884l5.123827241704608,1.5313008573159363l-1.417321975168432,-27.27537866423056l7.950773980640165,0.5640960688988794l-1.4789435787503769,27.330183426866085l4.754091347017014,-0.8864260141007203z"/></g></g><g transform="translate(0,0)"><g transform="matrix(1,0,0,1,675,291)"><path style="fill:none;stroke:#333333;stroke-width:3.0;" d="m7.0953634934374215,40.97025200765866l-7.054585210639491,-15.182396025081884l5.123827241704608,1.5313008573159363l-1.417321975168432,-27.27537866423056l7.950773980640165,0.5640960688988794l-1.4789435787503769,27.330183426866085l4.754091347017014,-0.8864260141007203z"/></g></g><g transform="translate(0,0)"><g transform="matrix(1,0,0,1,716,253)"><path style="fill:none;stroke:#333333;stroke-width:3.0;" d="m2.3705136081869203,0.03753693969635793l150.4691405410787,0.8338429287485635l-3.3790793120975056,30.07883555085238l-149.27659019812305,-0.11902831094398522z"/></g><text style="font-weight:bold; font-size: 12px; text-anchor: middle; font-family: arial,helvetica; fill: #333333;" y="277" x="792">b</text></g><g transform="matrix(1,0,0,1,6,-4)"><rect style="fill: #000000;fill-opacity: 0;stroke-opacity:0;stroke-width: 1;stroke:%stroke%;" rx="4" height="41" width="100" y="122" x="671"/><text style="font-weight:Normal; font-size: 12px; text-anchor: start; font-family: arial,helvetica; fill: #333333;" y="143" x="671"><tspan x="671" font-weight="bold" font-size="18" dy="8">write</tspan></text></g><g transform="matrix(1,0,0,1,3,-3)"><rect style="fill: #000000;fill-opacity: 0;stroke-opacity:0;stroke-width: 1;stroke:%stroke%;" rx="4" height="41" width="182" y="206" x="729"/><text style="font-weight:Normal; font-size: 12px; text-anchor: start; font-family: arial,helvetica; fill: #333333;" y="227" x="729"><tspan x="729" font-weight="bold" font-size="18" dy="8">replicated write</tspan></text></g></svg>