<svg height="237" width="441" viewBox="192 -48 441 237" style="background-color:transparent;" preserveAspectRatio="xMinYMin meet" xmlns:xlink="http://www.w3.org/1999/xlink" xmlns="http://www.w3.org/2000/svg"><g transform="translate(0,0)"><g transform="matrix(1,0,0,1,408,-25)"><path style="fill:none;stroke:#333333;stroke-width:3.0;" d="m22.359349995970838,29.77712354704799c41.10680912585287,-54.39498753813175 170.74923530757422,-32.010027222148246 177.08044537760028,51.17938255172746c6.318928382208336,83.18630290915453 -63.241480995308606,127.98698150186107 -135.9736362517474,92.78651489754996c-72.71987356862111,-35.17592237301392 -77.54657688097849,-95.73834706912747 -41.10680912585287,-143.96589744927743z"/></g></g><g transform="translate(0,0)"><g transform="matrix(1,0,0,1,393,54)"><path style="fill:rgb(255,255,255);stroke:rgb(0,0,0);stroke-width:3.0;" d="m3.46569924937548,4.642669800346192c6.371555414507195,-8.480938917235596 26.466131472674004,-4.990810695926339 27.447469033528044,7.979581150538152c0.979433899242292,12.96990744282517 -9.802429554272834,19.95495948147296 -21.075913619020845,14.466714688327682c-11.271580403136271,-5.484418004394643 -12.019719416551666,-14.926946586046757 -6.371555414507195,-22.446295838865836z"/></g><text style="font-weight:bold; font-size: 12px; text-anchor: middle; font-family: arial,helvetica; fill: #333333;" y="72" x="408">n1</text></g><g transform="translate(0,0)"><g transform="matrix(1,0,0,1,507,-38)"><path style="fill:rgb(255,255,255);stroke:rgb(0,0,0);stroke-width:3.0;" d="m3.46569924937548,4.642669800346192c6.371555414507195,-8.480938917235596 26.466131472674004,-4.990810695926339 27.447469033528044,7.979581150538152c0.979433899242292,12.96990744282517 -9.802429554272834,19.95495948147296 -21.075913619020845,14.466714688327682c-11.271580403136271,-5.484418004394643 -12.019719416551666,-14.926946586046757 -6.371555414507195,-22.446295838865836z"/></g><text style="font-weight:bold; font-size: 12px; text-anchor: middle; font-family: arial,helvetica; fill: #333333;" y="-20" x="522">n3</text></g><g transform="translate(0,0)"><g transform="matrix(1,0,0,1,578,9)"><path style="fill:rgb(255,255,255);stroke:rgb(0,0,0);stroke-width:3.0;" d="m3.46569924937548,4.642669800346192c6.371555414507195,-8.480938917235596 26.466131472674004,-4.990810695926339 27.447469033528044,7.979581150538152c0.979433899242292,12.96990744282517 -9.802429554272834,19.95495948147296 -21.075913619020845,14.466714688327682c-11.271580403136271,-5.484418004394643 -12.019719416551666,-14.926946586046757 -6.371555414507195,-22.446295838865836z"/></g><text style="font-weight:bold; font-size: 12px; text-anchor: middle; font-family: arial,helvetica; fill: #333333;" y="27" x="593">n4</text></g><g transform="translate(0,0)"><g transform="matrix(1,0,0,1,423,116)"><path style="fill:rgb(255,255,255);stroke:rgb(0,0,0);stroke-width:3.0;" d="m3.46569924937548,4.642669800346192c6.371555414507195,-8.480938917235596 26.466131472674004,-4.990810695926339 27.447469033528044,7.979581150538152c0.979433899242292,12.96990744282517 -9.802429554272834,19.95495948147296 -21.075913619020845,14.466714688327682c-11.271580403136271,-5.484418004394643 -12.019719416551666,-14.926946586046757 -6.371555414507195,-22.446295838865836z"/></g><text style="font-weight:bold; font-size: 12px; text-anchor: middle; font-family: arial,helvetica; fill: #333333;" y="134" x="438">n7</text></g><g transform="translate(0,0)"><path style="fill:none;stroke:#333333;stroke-width:2;" d="M426,68 C436,68 446,38.5  446,9"/><polyline style="fill:#ffffff;stroke:#333333;stroke-width:2;fill-opacity:0;" points="455,26 446,9 435,26"/><text style="font-weight:Normal; font-size: 12px; text-anchor: middle; font-family: arial,helvetica; fill: #333333;" y="18" x="427"/><text style="font-weight:Normal; font-size: 12px; text-anchor: start; font-family: arial,helvetica; fill: #333333;" y="49" x="439"/><text style="font-weight:Normal; font-size: 12px; text-anchor: middle; font-family: arial,helvetica; fill: #333333;" y="50" x="415"/></g><g transform="translate(0,0)"><path style="fill:none;stroke:#333333;stroke-width:2;" d="M426,68 C474,68 522,31.5  522,-5"/><polyline style="fill:#ffffff;stroke:#333333;stroke-width:2;fill-opacity:0;" points="530,12 522,-5 510,11"/><text style="font-weight:Normal; font-size: 12px; text-anchor: middle; font-family: arial,helvetica; fill: #333333;" y="-9" x="500"/><text style="font-weight:Normal; font-size: 12px; text-anchor: start; font-family: arial,helvetica; fill: #333333;" y="45" x="492"/><text style="font-weight:Normal; font-size: 12px; text-anchor: middle; font-family: arial,helvetica; fill: #333333;" y="48" x="427"/></g><g transform="translate(0,0)"><path style="fill:none;stroke:#333333;stroke-width:2;" d="M426,68 C476,68 526,104.5  526,141"/><polyline style="fill:#ffffff;stroke:#333333;stroke-width:2;fill-opacity:0;" points="514,124 526,141 534,123"/><text style="font-weight:Normal; font-size: 12px; text-anchor: middle; font-family: arial,helvetica; fill: #333333;" y="121" x="521"/><text style="font-weight:Normal; font-size: 12px; text-anchor: start; font-family: arial,helvetica; fill: #333333;" y="90" x="494"/><text style="font-weight:Normal; font-size: 12px; text-anchor: middle; font-family: arial,helvetica; fill: #333333;" y="64" x="446"/></g><g transform="translate(0,0)"><g transform="matrix(1,0,0,1,512,145)"><path style="fill:rgb(255,255,255);stroke:rgb(0,0,0);stroke-width:3.0;" d="m3.46569924937548,4.642669800346192c6.371555414507195,-8.480938917235596 26.466131472674004,-4.990810695926339 27.447469033528044,7.979581150538152c0.979433899242292,12.96990744282517 -9.802429554272834,19.95495948147296 -21.075913619020845,14.466714688327682c-11.271580403136271,-5.484418004394643 -12.019719416551666,-14.926946586046757 -6.371555414507195,-22.446295838865836z"/></g><text style="font-weight:bold; font-size: 12px; text-anchor: middle; font-family: arial,helvetica; fill: #333333;" y="163" x="527">n6</text></g><g transform="translate(0,0)"><g transform="matrix(1,0,0,1,587,84)"><path style="fill:rgb(255,255,255);stroke:rgb(0,0,0);stroke-width:3.0;" d="m3.46569924937548,4.642669800346192c6.371555414507195,-8.480938917235596 26.466131472674004,-4.990810695926339 27.447469033528044,7.979581150538152c0.979433899242292,12.96990744282517 -9.802429554272834,19.95495948147296 -21.075913619020845,14.466714688327682c-11.271580403136271,-5.484418004394643 -12.019719416551666,-14.926946586046757 -6.371555414507195,-22.446295838865836z"/></g><text style="font-weight:bold; font-size: 12px; text-anchor: middle; font-family: arial,helvetica; fill: #333333;" y="102" x="602">n5</text></g><g transform="translate(0,0)"><rect style="fill: #000000;fill-opacity: 0;stroke-opacity:0;stroke-width: 1;stroke:%stroke%;" rx="4" height="34" width="100" y="32" x="332"/><text style="font-weight:Normal; font-size: 12px; text-anchor: start; font-family: arial,helvetica; fill: #333333;" y="53" x="332"><tspan x="332">Coordinator</tspan></text></g><g transform="translate(0,0)"><g transform="matrix(1,0,0,1,207,36)"><path style="fill:none;stroke:#333333;stroke-width:3.0;" d="m14.190753931198135,3.89417399977717c5.29719756786198,-6.400184924071554 14.67927161746068,-4.132183734995935 16.737702323112334,1.198708883139804c2.057068408692256,5.329141115587113 -1.2347919741327575,13.993337695151306 -9.877620587158376,13.19387408740095c-8.642833621470322,-0.7995609134475014 -11.935374151086096,-8.263589024414703 -6.8600817359539565,-14.392582970540754z"/><path style="fill:none;stroke:#333333;stroke-width:3.0;" d="m9.800449469475254,50.00160284106687l-9.739440602850882,-0.4001210266637612c0,0 -0.13614154731309988,-17.856179260447508 0,-20.654496498968047c0.13681969072597708,-2.7984145442176818 2.88139830558026,-3.9979991786317983 5.76211546268082,-3.9979991786317983c2.8807181587895014,0 29.355127475633452,-1.3336718850811067 31.55176120443824,-0.9342319982973665c2.1959325465462722,0.4006075551494905 5.212098082212945,1.8679774681090038 5.350291088476668,5.730916339102354c0.13817297248490934,3.8643011507533918 0.2743225333095351,20.38953308563988 0.2743225333095351,20.38953308563988l-9.053985862395242,0.534986722907918"/><path style="fill:none;stroke:#333333;stroke-width:3.0;" d="m10.075314918190667,36.00836245161272l0.1361395439352184,17.591605069907928l24.008922276346038,0.39953719248088604l-1.2347819572433503,-18.92089819861747"/></g><text style="font-weight:bold; font-size: 12px; text-anchor: middle; font-family: arial,helvetica; fill: #333333;" y="105" x="228">Client</text></g><g transform="translate(0,0)"><path style="fill:none;stroke:#333333;stroke-width:2;" d="M389,68 C389,68 262,68  262,68"/><polyline style="fill:#ffffff;stroke:#333333;stroke-width:2;fill-opacity:0;" points="279,58 262,68 279,78"/><text style="font-weight:Normal; font-size: 12px; text-anchor: middle; font-family: arial,helvetica; fill: #333333;" y="83" x="278"/><text style="font-weight:Normal; font-size: 12px; text-anchor: start; font-family: arial,helvetica; fill: #333333;" y="68" x="325"/><text style="font-weight:Normal; font-size: 12px; text-anchor: middle; font-family: arial,helvetica; fill: #333333;" y="83" x="377"/><polyline style="fill:#ffffff;stroke:#333333;stroke-width:2;fill-opacity:0;" points="371,58 389,68 371,78"/></g><g transform="translate(0,0)"><g transform="matrix(1,0,0,1,431,-24)"><path style="fill:rgb(255,255,255);stroke:rgb(0,0,0);stroke-width:3.0;" d="m3.46569924937548,4.642669800346192c6.371555414507195,-8.480938917235596 26.466131472674004,-4.990810695926339 27.447469033528044,7.979581150538152c0.979433899242292,12.96990744282517 -9.802429554272834,19.95495948147296 -21.075913619020845,14.466714688327682c-11.271580403136271,-5.484418004394643 -12.019719416551666,-14.926946586046757 -6.371555414507195,-22.446295838865836z"/></g><text style="font-weight:bold; font-size: 12px; text-anchor: middle; font-family: arial,helvetica; fill: #333333;" y="-6" x="446">n2</text></g></svg>