<?xml version="1.0" encoding="UTF-8" standalone="no"?>
<svg
   xmlns:dc="http://purl.org/dc/elements/1.1/"
   xmlns:cc="http://creativecommons.org/ns#"
   xmlns:rdf="http://www.w3.org/1999/02/22-rdf-syntax-ns#"
   xmlns:svg="http://www.w3.org/2000/svg"
   xmlns="http://www.w3.org/2000/svg"
   xmlns:sodipodi="http://sodipodi.sourceforge.net/DTD/sodipodi-0.dtd"
   xmlns:inkscape="http://www.inkscape.org/namespaces/inkscape"
   height="175.15071"
   width="452.41223"
   viewBox="26 97 452.41223 175.15071"
   preserveAspectRatio="xMinYMin meet"
   id="svg4666"
   version="1.1"
   inkscape:version="0.91 r13725"
   sodipodi:docname="split_fail_bg.svg">
  <metadata
     id="metadata4800">
    <rdf:RDF>
      <cc:Work
         rdf:about="">
        <dc:format>image/svg+xml</dc:format>
        <dc:type
           rdf:resource="http://purl.org/dc/dcmitype/StillImage" />
        <dc:title></dc:title>
      </cc:Work>
    </rdf:RDF>
  </metadata>
  <defs
     id="defs4798" />
  <sodipodi:namedview
     pagecolor="#ffffff"
     bordercolor="#666666"
     borderopacity="1"
     objecttolerance="10"
     gridtolerance="10"
     guidetolerance="10"
     inkscape:pageopacity="0"
     inkscape:pageshadow="2"
     inkscape:window-width="1600"
     inkscape:window-height="841"
     id="namedview4796"
     showgrid="false"
     fit-margin-top="0"
     fit-margin-left="0"
     fit-margin-right="0"
     fit-margin-bottom="0"
     inkscape:zoom="2.926087"
     inkscape:cx="224.9651"
     inkscape:cy="68.705801"
     inkscape:window-x="0"
     inkscape:window-y="0"
     inkscape:window-maximized="1"
     inkscape:current-layer="svg4666" />
  <g
     id="g4668"
     transform="translate(-13.534896,-8.5550874)">
    <g
       transform="translate(41,107)"
       id="g4670">
      <path
         style="fill:none;stroke:#333333;stroke-width:3"
         d="M 0.03469242,11.376045 0.86236567,61.6279 19.080012,72.975204 18.251787,24.344035"
         id="path4672"
         inkscape:connector-curvature="0" />
      <path
         style="fill:none;stroke:#333333;stroke-width:3"
         d="m 42.26604,0.03044909 c 0,0 -39.747776,7.29439741 -40.5753897,9.72647211 C 0.86242248,12.188519 18.251852,24.346537 18.251852,24.346537 L 62.966663,10.567661 42.265905,0.03040937 Z"
         id="path4674"
         inkscape:connector-curvature="0" />
      <path
         style="fill:none;stroke:#333333;stroke-width:3"
         d="M 62.966663,10.568482 62.138992,60.820205 19.080085,72.978288 18.171292,24.347119"
         id="path4676"
         inkscape:connector-curvature="0" />
      <path
         style="fill:none;stroke:#333333;stroke-width:3"
         d="m 6.6588484,30.016184 5.7964886,4.052747"
         id="path4678"
         inkscape:connector-curvature="0" />
    </g>
  </g>
  <g
     id="g4680"
     transform="translate(-13.534896,-8.5550874)">
    <path
       style="fill:none;stroke:#333333;stroke-width:2"
       d="m 416,182 c 0,10 40,10 40,20"
       id="path4682"
       inkscape:connector-curvature="0" />
    <text
       style="font-size:12px;font-family:arial, helvetica;text-anchor:middle;fill:#333333"
       y="181"
       x="447"
       id="text4684" />
    <text
       style="font-size:12px;font-family:arial, helvetica;text-anchor:start;fill:#333333"
       y="192"
       x="436"
       id="text4686" />
    <text
       style="font-size:12px;font-family:arial, helvetica;text-anchor:middle;fill:#333333"
       y="174"
       x="434"
       id="text4688" />
  </g>
  <g
     id="g4690"
     transform="translate(-13.534896,-8.5550874)">
    <path
       style="fill:none;stroke:#333333;stroke-width:2"
       d="m 203,143 c 0,0 54.50495,43.57229 87,44 34.29151,0.45135 93,-44 93,-44"
       id="path4692"
       inkscape:connector-curvature="0" />
    <text
       style="font-size:12px;font-family:arial, helvetica;text-anchor:middle;fill:#333333"
       y="136"
       x="362"
       id="text4694" />
    <text
       style="font-size:12px;font-family:arial, helvetica;text-anchor:start;fill:#333333"
       y="175"
       x="290"
       id="text4696" />
    <text
       style="font-size:12px;font-family:arial, helvetica;text-anchor:middle;fill:#333333"
       y="135"
       x="221"
       id="text4698" />
  </g>
  <g
     id="g4700"
     transform="translate(-13.534896,-8.5550874)">
    <path
       style="fill:none;stroke:#333333;stroke-width:2"
       d="m 153,241 c 0,0 93.56396,-32.08253 142,-31 44.1352,0.98641 128,34 128,34"
       id="path4702"
       inkscape:connector-curvature="0" />
    <text
       style="font-size:12px;font-family:arial, helvetica;text-anchor:middle;fill:#333333"
       y="225"
       x="410"
       id="text4704" />
    <text
       style="font-size:12px;font-family:arial, helvetica;text-anchor:start;fill:#333333"
       y="198"
       x="295"
       id="text4706" />
    <text
       style="font-size:12px;font-family:arial, helvetica;text-anchor:middle;fill:#333333"
       y="224"
       x="162"
       id="text4708" />
  </g>
  <g
     id="g4714"
     transform="translate(-13.534896,-8.5550874)">
    <g
       transform="translate(138,107)"
       id="g4716">
      <path
         style="fill:none;stroke:#333333;stroke-width:3"
         d="M 0.03469242,11.376045 0.86236567,61.6279 19.080012,72.975204 18.251787,24.344035"
         id="path4718"
         inkscape:connector-curvature="0" />
      <path
         style="fill:none;stroke:#333333;stroke-width:3"
         d="m 42.26604,0.03044909 c 0,0 -39.747776,7.29439741 -40.5753897,9.72647211 C 0.86242248,12.188519 18.251852,24.346537 18.251852,24.346537 L 62.966663,10.567661 42.265905,0.03040937 Z"
         id="path4720"
         inkscape:connector-curvature="0" />
      <path
         style="fill:none;stroke:#333333;stroke-width:3"
         d="M 62.966663,10.568482 62.138992,60.820205 19.080085,72.978288 18.171292,24.347119"
         id="path4722"
         inkscape:connector-curvature="0" />
      <path
         style="fill:none;stroke:#333333;stroke-width:3"
         d="m 6.6588484,30.016184 5.7964886,4.052747"
         id="path4724"
         inkscape:connector-curvature="0" />
    </g>
    <text
       style="font-weight:bold;font-size:12px;font-family:arial, helvetica;text-anchor:middle;fill:#333333"
       y="195"
       x="169"
       id="text4726" />
  </g>
  <g
     id="g4728"
     transform="translate(-13.534896,-8.5550874)">
    <g
       transform="translate(88,205)"
       id="g4730">
      <path
         style="fill:none;stroke:#333333;stroke-width:3"
         d="M 0.03469242,11.376045 0.86236567,61.6279 19.080012,72.975204 18.251787,24.344035"
         id="path4732"
         inkscape:connector-curvature="0" />
      <path
         style="fill:none;stroke:#333333;stroke-width:3"
         d="m 42.26604,0.03044909 c 0,0 -39.747776,7.29439741 -40.5753897,9.72647211 C 0.86242248,12.188519 18.251852,24.346537 18.251852,24.346537 L 62.966663,10.567661 42.265905,0.03040937 Z"
         id="path4734"
         inkscape:connector-curvature="0" />
      <path
         style="fill:none;stroke:#333333;stroke-width:3"
         d="M 62.966663,10.568482 62.138992,60.820205 19.080085,72.978288 18.171292,24.347119"
         id="path4736"
         inkscape:connector-curvature="0" />
      <path
         style="fill:none;stroke:#333333;stroke-width:3"
         d="m 6.6588484,30.016184 5.7964886,4.052747"
         id="path4738"
         inkscape:connector-curvature="0" />
    </g>
    <text
       style="font-weight:bold;font-size:12px;font-family:arial, helvetica;text-anchor:middle;fill:#333333"
       y="293"
       x="119"
       id="text4740" />
  </g>
  <g
     id="g4742"
     transform="translate(-13.534896,-8.5550874)">
    <path
       style="fill:none;stroke:#333333;stroke-width:2"
       d="m 169,182 c 0,0 19.94903,27.31479 15,41 -4.06359,11.23677 -31,18 -31,18"
       id="path4744"
       inkscape:connector-curvature="0" />
    <text
       style="font-size:12px;font-family:arial, helvetica;text-anchor:middle;fill:#333333"
       y="244"
       x="173"
       id="text4746" />
    <text
       style="font-size:12px;font-family:arial, helvetica;text-anchor:start;fill:#333333"
       y="211"
       x="184"
       id="text4748" />
    <text
       style="font-size:12px;font-family:arial, helvetica;text-anchor:middle;fill:#333333"
       y="189"
       x="187"
       id="text4750" />
  </g>
  <g
     id="g4752"
     transform="translate(-13.534896,-8.5550874)">
    <path
       style="fill:none;stroke:#333333;stroke-width:2"
       d="m 72,182 c 0,0 -16.785429,30.03274 -11,44 3.719014,8.9785 25,15 25,15"
       id="path4754"
       inkscape:connector-curvature="0" />
    <text
       style="font-size:12px;font-family:arial, helvetica;text-anchor:middle;fill:#333333"
       y="220"
       x="79"
       id="text4756" />
    <text
       style="font-size:12px;font-family:arial, helvetica;text-anchor:start;fill:#333333"
       y="214"
       x="61"
       id="text4758" />
    <text
       style="font-size:12px;font-family:arial, helvetica;text-anchor:middle;fill:#333333"
       y="198"
       x="83"
       id="text4760" />
  </g>
  <g
     id="g4762"
     transform="translate(-13.534896,-8.5550874)">
    <path
       style="fill:none;stroke:#333333;stroke-width:2"
       d="m 106,143 c 15,0 15,0 30,0"
       id="path4764"
       inkscape:connector-curvature="0" />
    <text
       style="font-size:12px;font-family:arial, helvetica;text-anchor:middle;fill:#333333"
       y="128"
       x="120"
       id="text4766" />
    <text
       style="font-size:12px;font-family:arial, helvetica;text-anchor:start;fill:#333333"
       y="143"
       x="121"
       id="text4768" />
    <text
       style="font-size:12px;font-family:arial, helvetica;text-anchor:middle;fill:#333333"
       y="128"
       x="120"
       id="text4770" />
  </g>
  <g
     id="g4772"
     transform="translate(-13.534896,-8.5550874)">
    <g
       transform="translate(385,107)"
       id="g4774">
      <path
         style="fill:none;stroke:#333333;stroke-width:3"
         d="M 0.03469242,11.376045 0.86236567,61.6279 19.080012,72.975204 18.251787,24.344035"
         id="path4776"
         inkscape:connector-curvature="0" />
      <path
         style="fill:none;stroke:#333333;stroke-width:3"
         d="m 42.26604,0.03044909 c 0,0 -39.747776,7.29439741 -40.5753897,9.72647211 C 0.86242248,12.188519 18.251852,24.346537 18.251852,24.346537 L 62.966663,10.567661 42.265905,0.03040937 Z"
         id="path4778"
         inkscape:connector-curvature="0" />
      <path
         style="fill:none;stroke:#333333;stroke-width:3"
         d="M 62.966663,10.568482 62.138992,60.820205 19.080085,72.978288 18.171292,24.347119"
         id="path4780"
         inkscape:connector-curvature="0" />
      <path
         style="fill:none;stroke:#333333;stroke-width:3"
         d="m 6.6588484,30.016184 5.7964886,4.052747"
         id="path4782"
         inkscape:connector-curvature="0" />
    </g>
  </g>
  <g
     id="g4784"
     transform="translate(-13.534896,-8.5550874)">
    <g
       transform="translate(425,204)"
       id="g4786">
      <path
         style="fill:none;stroke:#333333;stroke-width:3"
         d="M 0.03469242,11.376045 0.86236567,61.6279 19.080012,72.975204 18.251787,24.344035"
         id="path4788"
         inkscape:connector-curvature="0" />
      <path
         style="fill:none;stroke:#333333;stroke-width:3"
         d="m 42.26604,0.03044909 c 0,0 -39.747776,7.29439741 -40.5753897,9.72647211 C 0.86242248,12.188519 18.251852,24.346537 18.251852,24.346537 L 62.966663,10.567661 42.265905,0.03040937 Z"
         id="path4790"
         inkscape:connector-curvature="0" />
      <path
         style="fill:none;stroke:#333333;stroke-width:3"
         d="M 62.966663,10.568482 62.138992,60.820205 19.080085,72.978288 18.171292,24.347119"
         id="path4792"
         inkscape:connector-curvature="0" />
      <path
         style="fill:none;stroke:#333333;stroke-width:3"
         d="m 6.6588484,30.016184 5.7964886,4.052747"
         id="path4794"
         inkscape:connector-curvature="0" />
    </g>
  </g>
</svg>
